<svg
  width="21"
  height="18"
  viewBox="0 0 21 18"
  fill="none"
  xmlns="http://www.w3.org/2000/svg"
>
  <path
    d="M3.38842 16.986L3.9806 16.7172L3.38842 16.986ZM16.7715 16.986L17.3637 17.2548L16.7715 16.986ZM1.07532 6.9084H19.0846V5.7084H1.07532V6.9084ZM18.6912 6.552V7.0788H20.016V6.552H18.6912ZM16.553 16.5084H3.60701V17.7084H16.553V16.5084ZM1.46878 7.0788V6.552H0.143982V7.0788H1.46878ZM3.9806 16.7172C2.32871 13.7246 1.46874 10.4247 1.46878 7.0788H0.143982C0.143982 10.6116 1.05147 14.0952 2.79623 17.2548L3.9806 16.7172ZM3.60701 16.5084C3.76599 16.5084 3.91039 16.59 3.9806 16.7172L2.79623 17.2548C2.87165 17.3911 2.98742 17.5057 3.1306 17.5858C3.27378 17.6659 3.43872 17.7083 3.60701 17.7084V16.5084ZM16.1794 16.7172C16.2141 16.6544 16.2674 16.6016 16.3334 16.5647C16.3994 16.5278 16.4754 16.5083 16.553 16.5084V17.7084C16.8974 17.7084 17.2101 17.5332 17.3637 17.2548L16.1794 16.7172ZM18.6912 7.0788C18.6912 10.4244 17.8301 13.7244 16.1794 16.7172L17.3637 17.2548C19.108 14.0953 20.016 10.6113 20.016 7.0788H18.6912ZM19.0846 6.9084C18.9803 6.9084 18.8802 6.87085 18.8064 6.80401C18.7326 6.73717 18.6912 6.64652 18.6912 6.552H20.016C20.016 6.32826 19.9179 6.11369 19.7432 5.95548C19.5685 5.79728 19.3317 5.7084 19.0846 5.7084V6.9084ZM1.07532 5.7084C0.828311 5.7084 0.591423 5.79728 0.416763 5.95548C0.242104 6.11369 0.143982 6.32826 0.143982 6.552H1.46878C1.46878 6.64652 1.42733 6.73717 1.35354 6.80401C1.27975 6.87085 1.17967 6.9084 1.07532 6.9084V5.7084ZM5.34912 6.6168L9.32352 0.6168L8.18552 0L4.21112 6L5.3478 6.6168H5.34912ZM10.8364 0.6168L14.8108 6.6168L15.9475 6L11.9731 0L10.8364 0.6168Z"
    fill="url(#paint0_linear_49_90)"
  />
  <defs>
    <linearGradient
      id="paint0_linear_49_90"
      x1="-6.48002"
      y1="3.38301e-07"
      x2="21.3668"
      y2="26.7329"
      gradient-units="userSpaceOnUse"
    >
      <stop stop-color="white" stop-opacity="0.8" />
      <stop offset="1" stop-color="white" stop-opacity="0.25" />
    </linearGradient>
  </defs>
</svg>
