<svg
  width="23"
  height="20"
  viewBox="0 0 23 20"
  fill="none"
  xmlns="http://www.w3.org/2000/svg"
>
  <g clipPath="url(#clip0_49_95)">
    <path
      d="M16.5315 3.4375C17.0339 3.43712 17.5313 3.52758 17.9946 3.70359C18.4579 3.8796 18.8777 4.13761 19.2294 4.4625C19.9542 5.12899 20.3605 6.02697 20.3605 6.9625C20.3605 7.89803 19.9542 8.79601 19.2294 9.4625L12.081 16.0188L4.93263 9.4625C4.20784 8.79601 3.80157 7.89803 3.80157 6.9625C3.80157 6.02697 4.20784 5.12899 4.93263 4.4625C5.28459 4.13785 5.70444 3.87997 6.16766 3.70393C6.63089 3.5279 7.12819 3.43723 7.63053 3.43723C8.13286 3.43723 8.63017 3.5279 9.09339 3.70393C9.55661 3.87997 9.97646 4.13785 10.3284 4.4625L12.081 6.0875L13.8267 4.475C14.1774 4.14624 14.5977 3.88491 15.0624 3.70665C15.5272 3.52839 16.0268 3.43685 16.5315 3.4375ZM16.5315 2.1875C15.8454 2.18697 15.1661 2.31054 14.5334 2.55094C13.9007 2.79134 13.3273 3.14375 12.8469 3.5875L12.081 4.2875L11.3151 3.5875C10.8342 3.14455 10.2607 2.79276 9.62807 2.55262C8.99547 2.31248 8.31643 2.18881 7.63053 2.18881C6.94462 2.18881 6.26558 2.31248 5.63298 2.55262C5.00039 2.79276 4.42689 3.14455 3.94593 3.5875C2.96742 4.48977 2.41916 5.70398 2.41916 6.96875C2.41916 8.23353 2.96742 9.44774 3.94593 10.35L12.081 17.8125L20.2161 10.35C21.1946 9.44774 21.7429 8.23353 21.7429 6.96875C21.7429 5.70398 21.1946 4.48977 20.2161 3.5875C19.7353 3.14432 19.1618 2.79228 18.5292 2.55191C17.8966 2.31155 17.2175 2.18767 16.5315 2.1875Z"
      fill="url(#paint0_linear_49_95)"
    />
  </g>
  <defs>
    <linearGradient
      id="paint0_linear_49_95"
      x1="-8.89499"
      y1="-2.3125"
      x2="17.9045"
      y2="22.8082"
      gradient-units="userSpaceOnUse"
    >
      <stop stop-color="white" stop-opacity="0.8" />
      <stop offset="1" stop-color="white" stop-opacity="0.25" />
    </linearGradient>
    <clipPath id="clip0_49_95">
      <rect
        width="20"
        height="22.08"
        fill="white"
        transform="translate(0.696014 20) rotate(-90)"
      />
    </clipPath>
  </defs>
</svg>